<mxfile host="Electron" modified="2023-05-27T14:56:45.575Z" agent="Mozilla/5.0 (Macintosh; Intel Mac OS X 10_15_7) AppleWebKit/537.36 (KHTML, like Gecko) draw.io/21.2.1 Chrome/112.0.5615.87 Electron/24.1.2 Safari/537.36" etag="3TcHQM7oSDURYqzCPiWo" version="21.2.1" type="device">
  <diagram name="Page-1" id="H1nZVYqxkzLZFgEqRADx">
    <mxGraphModel dx="-5260" dy="31300" grid="1" gridSize="10" guides="1" tooltips="1" connect="1" arrows="1" fold="1" page="1" pageScale="1" pageWidth="850" pageHeight="1100" math="0" shadow="0">
      <root>
        <mxCell id="0" />
        <mxCell id="1" parent="0" />
        <mxCell id="AsBp8XiL8Dx4Y6rQVwFH-1273" value="R, W: 112, H: 47, ORDER: 11, GC: {47, 22, 19, 24, 3, 11, 5, 25, 6, 23, 17} " style="text;html=1;strokeColor=none;fillColor=none;align=center;verticalAlign=middle;whiteSpace=wrap;rounded=0;fontSize=33;flipV=1;" parent="1" vertex="1">
          <mxGeometry x="25780" y="-1050" width="1120" height="30" as="geometry" />
        </mxCell>
        <mxCell id="AsBp8XiL8Dx4Y6rQVwFH-1381" value="R, W: 112, H: 55, ORDER: 11, GC: {55, 25, 17, 15, 2, 13, 8, 11, 30, 3, 27} " style="text;html=1;strokeColor=none;fillColor=none;align=center;verticalAlign=middle;whiteSpace=wrap;rounded=0;fontSize=33;flipV=1;" parent="1" vertex="1">
          <mxGeometry x="25780" y="-1800" width="1120" height="30" as="geometry" />
        </mxCell>
        <mxCell id="AsBp8XiL8Dx4Y6rQVwFH-1489" value="R, W: 112, H: 57, ORDER: 11, GC: {57, 27, 13, 15, 11, 2, 17, 3, 8, 30, 25} " style="text;html=1;strokeColor=none;fillColor=none;align=center;verticalAlign=middle;whiteSpace=wrap;rounded=0;fontSize=33;flipV=1;" parent="1" vertex="1">
          <mxGeometry x="25770" y="-2570" width="1120" height="30" as="geometry" />
        </mxCell>
        <mxCell id="AsBp8XiL8Dx4Y6rQVwFH-1573" value="R, W: 112, H: 65, ORDER: 11, GC: {65, 23, 24, 17, 6, 5, 19, 11, 25, 3, 22} " style="text;html=1;strokeColor=none;fillColor=none;align=center;verticalAlign=middle;whiteSpace=wrap;rounded=0;fontSize=33;flipV=1;" parent="1" vertex="1">
          <mxGeometry x="25780" y="-3380" width="1120" height="30" as="geometry" />
        </mxCell>
        <mxCell id="AsBp8XiL8Dx4Y6rQVwFH-1609" value="R, W: 112, H: 81, ORDER: 11, GC: {38, 33, 41, 5, 19, 9, 1, 40, 10, 43, 29} " style="text;html=1;strokeColor=none;fillColor=none;align=center;verticalAlign=middle;whiteSpace=wrap;rounded=0;fontSize=33;flipV=1;" parent="1" vertex="1">
          <mxGeometry x="25790" y="-4350" width="1120" height="30" as="geometry" />
        </mxCell>
        <mxCell id="AsBp8XiL8Dx4Y6rQVwFH-1891" value="R, W: 112, H: 99, ORDER: 12, GC: {43, 30, 39, 13, 17, 8, 31, 56, 25, 2, 29, 27} " style="text;html=1;strokeColor=none;fillColor=none;align=center;verticalAlign=middle;whiteSpace=wrap;rounded=0;fontSize=33;flipV=1;" parent="1" vertex="1">
          <mxGeometry x="25730" y="-5620" width="1120" height="30" as="geometry" />
        </mxCell>
        <mxCell id="AsBp8XiL8Dx4Y6rQVwFH-2489" value="R, W: 112, H: 75, ORDER: 13, GC: {33, 24, 19, 36, 5, 14, 9, 20, 11, 3, 39, 42, 31} B" style="text;html=1;strokeColor=none;fillColor=none;align=center;verticalAlign=middle;whiteSpace=wrap;rounded=0;fontSize=33;flipV=1;" parent="1" vertex="1">
          <mxGeometry x="25710" y="-6760" width="1120" height="30" as="geometry" />
        </mxCell>
        <mxCell id="AsBp8XiL8Dx4Y6rQVwFH-2517" value="R, W: 112, H: 75, ORDER: 13, GC: {36, 33, 19, 24, 14, 5, 9, 20, 3, 42, 11, 31, 39} A" style="text;html=1;strokeColor=none;fillColor=none;align=center;verticalAlign=middle;whiteSpace=wrap;rounded=0;fontSize=33;flipV=1;" parent="1" vertex="1">
          <mxGeometry x="25710" y="-7680" width="1120" height="30" as="geometry" />
        </mxCell>
        <mxCell id="AsBp8XiL8Dx4Y6rQVwFH-2573" value="R, W: 112, H: 83, ORDER: 13, GC: {39, 31, 42, 8, 11, 12, 1, 41, 44, 3, 14, 13, 27} " style="text;html=1;strokeColor=none;fillColor=none;align=center;verticalAlign=middle;whiteSpace=wrap;rounded=0;fontSize=33;flipV=1;" parent="1" vertex="1">
          <mxGeometry x="25710" y="-8840" width="1120" height="30" as="geometry" />
        </mxCell>
        <mxCell id="AsBp8XiL8Dx4Y6rQVwFH-2657" value="R, W: 112, H: 85, ORDER: 13, GC: {42, 41, 29, 12, 17, 1, 44, 8, 3, 14, 11, 25, 43} " style="text;html=1;strokeColor=none;fillColor=none;align=center;verticalAlign=middle;whiteSpace=wrap;rounded=0;fontSize=33;flipV=1;" parent="1" vertex="1">
          <mxGeometry x="27110" y="-8780" width="1120" height="30" as="geometry" />
        </mxCell>
        <mxCell id="AsBp8XiL8Dx4Y6rQVwFH-2713" value="R, W: 112, H: 93, ORDER: 13, GC: {42, 33, 37, 9, 24, 20, 17, 3, 14, 51, 36, 11, 25} " style="text;html=1;strokeColor=none;fillColor=none;align=center;verticalAlign=middle;whiteSpace=wrap;rounded=0;fontSize=33;flipV=1;" parent="1" vertex="1">
          <mxGeometry x="27140" y="-7760" width="1120" height="30" as="geometry" />
        </mxCell>
        <mxCell id="AsBp8XiL8Dx4Y6rQVwFH-3601" value="R, W: 112, H: 99, ORDER: 15, GC: {46, 28, 38, 18, 10, 17, 31, 53, 11, 2, 15, 13, 1, 30, 29} " style="text;html=1;strokeColor=none;fillColor=none;align=center;verticalAlign=middle;whiteSpace=wrap;rounded=0;fontSize=33;flipV=1;" parent="1" vertex="1">
          <mxGeometry x="27120" y="-6590" width="1120" height="30" as="geometry" />
        </mxCell>
        <mxCell id="AsBp8XiL8Dx4Y6rQVwFH-5825" value="R, W: 112, H: 79, ORDER: 17, GC: {35, 26, 20, 12, 19, 5, 7, 3, 2, 28, 23, 9, 17, 44, 36, 4, 32} " style="text;html=1;strokeColor=none;fillColor=none;align=center;verticalAlign=middle;whiteSpace=wrap;rounded=0;fontSize=33;flipV=1;" parent="1" vertex="1">
          <mxGeometry x="27130" y="-5390" width="1120" height="30" as="geometry" />
        </mxCell>
        <mxCell id="AsBp8XiL8Dx4Y6rQVwFH-5897" value="R, W: 112, H: 95, ORDER: 17, GC: {46, 28, 38, 18, 10, 8, 13, 27, 49, 16, 7, 2, 11, 9, 33, 3, 30} " style="text;html=1;strokeColor=none;fillColor=none;align=center;verticalAlign=middle;whiteSpace=wrap;rounded=0;fontSize=33;flipV=1;" parent="1" vertex="1">
          <mxGeometry x="27150" y="-4390" width="1120" height="30" as="geometry" />
        </mxCell>
        <mxCell id="AsBp8XiL8Dx4Y6rQVwFH-22779" value="S, W: 112, H: 112, ORDER: 21, GC: {33, 37, 29, 4, 42, 25, 16, 18, 9, 7, 24, 2, 17, 6, 11, 19, 50, 15, 35, 8, 27} " style="text;html=1;strokeColor=none;fillColor=none;align=center;verticalAlign=middle;whiteSpace=wrap;rounded=0;fontSize=33;flipV=1;" parent="1" vertex="1">
          <mxGeometry x="27170" y="-1990" width="1120" height="30" as="geometry" />
        </mxCell>
        <mxCell id="ea-bZZUWoCOGceE9sefl-1" value="" style="group;fontSize=33;flipV=1;" parent="1" vertex="1" connectable="0">
          <mxGeometry x="27170" y="-1940" width="1120" height="1120" as="geometry" />
        </mxCell>
        <mxCell id="761dnnyQ54j-Cl0NHfQN-22780" value="33" style="rounded=0;whiteSpace=wrap;html=1;fontSize=33;" parent="ea-bZZUWoCOGceE9sefl-1" vertex="1">
          <mxGeometry y="790" width="330" height="330" as="geometry" />
        </mxCell>
        <mxCell id="761dnnyQ54j-Cl0NHfQN-22781" value="37" style="rounded=0;whiteSpace=wrap;html=1;fontSize=33;" parent="ea-bZZUWoCOGceE9sefl-1" vertex="1">
          <mxGeometry x="330" y="750" width="370" height="370" as="geometry" />
        </mxCell>
        <mxCell id="761dnnyQ54j-Cl0NHfQN-22782" value="29" style="rounded=0;whiteSpace=wrap;html=1;fontSize=33;" parent="ea-bZZUWoCOGceE9sefl-1" vertex="1">
          <mxGeometry y="500" width="290" height="290" as="geometry" />
        </mxCell>
        <mxCell id="761dnnyQ54j-Cl0NHfQN-22783" value="4" style="rounded=0;whiteSpace=wrap;html=1;fontSize=33;" parent="ea-bZZUWoCOGceE9sefl-1" vertex="1">
          <mxGeometry x="290" y="750" width="40" height="40" as="geometry" />
        </mxCell>
        <mxCell id="761dnnyQ54j-Cl0NHfQN-22784" value="42" style="rounded=0;whiteSpace=wrap;html=1;fontSize=33;" parent="ea-bZZUWoCOGceE9sefl-1" vertex="1">
          <mxGeometry x="700" y="700" width="420" height="420" as="geometry" />
        </mxCell>
        <mxCell id="761dnnyQ54j-Cl0NHfQN-22785" value="25" style="rounded=0;whiteSpace=wrap;html=1;fontSize=33;" parent="ea-bZZUWoCOGceE9sefl-1" vertex="1">
          <mxGeometry x="290" y="500" width="250" height="250" as="geometry" />
        </mxCell>
        <mxCell id="761dnnyQ54j-Cl0NHfQN-22786" value="16" style="rounded=0;whiteSpace=wrap;html=1;fontSize=33;" parent="ea-bZZUWoCOGceE9sefl-1" vertex="1">
          <mxGeometry x="540" y="590" width="160" height="160" as="geometry" />
        </mxCell>
        <mxCell id="761dnnyQ54j-Cl0NHfQN-22787" value="18" style="rounded=0;whiteSpace=wrap;html=1;fontSize=33;" parent="ea-bZZUWoCOGceE9sefl-1" vertex="1">
          <mxGeometry x="700" y="520" width="180" height="180" as="geometry" />
        </mxCell>
        <mxCell id="761dnnyQ54j-Cl0NHfQN-22788" value="9" style="rounded=0;whiteSpace=wrap;html=1;fontSize=33;" parent="ea-bZZUWoCOGceE9sefl-1" vertex="1">
          <mxGeometry x="540" y="500" width="90" height="90" as="geometry" />
        </mxCell>
        <mxCell id="761dnnyQ54j-Cl0NHfQN-22789" value="7" style="rounded=0;whiteSpace=wrap;html=1;fontSize=33;" parent="ea-bZZUWoCOGceE9sefl-1" vertex="1">
          <mxGeometry x="630" y="520" width="70" height="70" as="geometry" />
        </mxCell>
        <mxCell id="761dnnyQ54j-Cl0NHfQN-22790" value="24" style="rounded=0;whiteSpace=wrap;html=1;fontSize=33;" parent="ea-bZZUWoCOGceE9sefl-1" vertex="1">
          <mxGeometry x="880" y="460" width="240" height="240" as="geometry" />
        </mxCell>
        <mxCell id="761dnnyQ54j-Cl0NHfQN-22791" value="2" style="rounded=0;whiteSpace=wrap;html=1;fontSize=33;" parent="ea-bZZUWoCOGceE9sefl-1" vertex="1">
          <mxGeometry x="630" y="500" width="20" height="20" as="geometry" />
        </mxCell>
        <mxCell id="761dnnyQ54j-Cl0NHfQN-22792" value="17" style="rounded=0;whiteSpace=wrap;html=1;fontSize=33;" parent="ea-bZZUWoCOGceE9sefl-1" vertex="1">
          <mxGeometry x="650" y="350" width="170" height="170" as="geometry" />
        </mxCell>
        <mxCell id="761dnnyQ54j-Cl0NHfQN-22793" value="6" style="rounded=0;whiteSpace=wrap;html=1;fontSize=33;" parent="ea-bZZUWoCOGceE9sefl-1" vertex="1">
          <mxGeometry x="820" y="460" width="60" height="60" as="geometry" />
        </mxCell>
        <mxCell id="761dnnyQ54j-Cl0NHfQN-22794" value="11" style="rounded=0;whiteSpace=wrap;html=1;fontSize=33;" parent="ea-bZZUWoCOGceE9sefl-1" vertex="1">
          <mxGeometry x="820" y="350" width="110" height="110" as="geometry" />
        </mxCell>
        <mxCell id="761dnnyQ54j-Cl0NHfQN-22795" value="19" style="rounded=0;whiteSpace=wrap;html=1;fontSize=33;" parent="ea-bZZUWoCOGceE9sefl-1" vertex="1">
          <mxGeometry x="930" y="270" width="190" height="190" as="geometry" />
        </mxCell>
        <mxCell id="761dnnyQ54j-Cl0NHfQN-22796" value="50" style="rounded=0;whiteSpace=wrap;html=1;fontSize=33;" parent="ea-bZZUWoCOGceE9sefl-1" vertex="1">
          <mxGeometry width="500" height="500" as="geometry" />
        </mxCell>
        <mxCell id="761dnnyQ54j-Cl0NHfQN-22797" value="15" style="rounded=0;whiteSpace=wrap;html=1;fontSize=33;" parent="ea-bZZUWoCOGceE9sefl-1" vertex="1">
          <mxGeometry x="500" y="350" width="150" height="150" as="geometry" />
        </mxCell>
        <mxCell id="761dnnyQ54j-Cl0NHfQN-22798" value="35" style="rounded=0;whiteSpace=wrap;html=1;fontSize=33;" parent="ea-bZZUWoCOGceE9sefl-1" vertex="1">
          <mxGeometry x="500" width="350" height="350" as="geometry" />
        </mxCell>
        <mxCell id="761dnnyQ54j-Cl0NHfQN-22799" value="8" style="rounded=0;whiteSpace=wrap;html=1;fontSize=33;" parent="ea-bZZUWoCOGceE9sefl-1" vertex="1">
          <mxGeometry x="850" y="270" width="80" height="80" as="geometry" />
        </mxCell>
        <mxCell id="761dnnyQ54j-Cl0NHfQN-22800" value="27" style="rounded=0;whiteSpace=wrap;html=1;fontSize=33;" parent="ea-bZZUWoCOGceE9sefl-1" vertex="1">
          <mxGeometry x="850" width="270" height="270" as="geometry" />
        </mxCell>
        <mxCell id="ea-bZZUWoCOGceE9sefl-2" value="" style="group;fontSize=33;flipV=1;" parent="1" vertex="1" connectable="0">
          <mxGeometry x="27170" y="-3280" width="1120" height="1140" as="geometry" />
        </mxCell>
        <mxCell id="AsBp8XiL8Dx4Y6rQVwFH-7439" value="R, W: 112, H: 109, ORDER: 18, GC: {50, 28, 34, 22, 6, 16, 24, 59, 29, 11, 13, 9, 2, 15, 1, 8, 30, 23} " style="text;html=1;strokeColor=none;fillColor=none;align=center;verticalAlign=middle;whiteSpace=wrap;rounded=0;fontSize=33;" parent="ea-bZZUWoCOGceE9sefl-2" vertex="1">
          <mxGeometry y="1110" width="1120" height="30" as="geometry" />
        </mxCell>
        <mxCell id="761dnnyQ54j-Cl0NHfQN-7440" value="50" style="rounded=0;whiteSpace=wrap;html=1;fontSize=33;" parent="ea-bZZUWoCOGceE9sefl-2" vertex="1">
          <mxGeometry y="590" width="500" height="500" as="geometry" />
        </mxCell>
        <mxCell id="761dnnyQ54j-Cl0NHfQN-7441" value="28" style="rounded=0;whiteSpace=wrap;html=1;fontSize=33;" parent="ea-bZZUWoCOGceE9sefl-2" vertex="1">
          <mxGeometry x="500" y="810" width="280" height="280" as="geometry" />
        </mxCell>
        <mxCell id="761dnnyQ54j-Cl0NHfQN-7442" value="34" style="rounded=0;whiteSpace=wrap;html=1;fontSize=33;" parent="ea-bZZUWoCOGceE9sefl-2" vertex="1">
          <mxGeometry x="780" y="750" width="340" height="340" as="geometry" />
        </mxCell>
        <mxCell id="761dnnyQ54j-Cl0NHfQN-7443" value="22" style="rounded=0;whiteSpace=wrap;html=1;fontSize=33;" parent="ea-bZZUWoCOGceE9sefl-2" vertex="1">
          <mxGeometry x="500" y="590" width="220" height="220" as="geometry" />
        </mxCell>
        <mxCell id="761dnnyQ54j-Cl0NHfQN-7444" value="6" style="rounded=0;whiteSpace=wrap;html=1;fontSize=33;" parent="ea-bZZUWoCOGceE9sefl-2" vertex="1">
          <mxGeometry x="720" y="750" width="60" height="60" as="geometry" />
        </mxCell>
        <mxCell id="761dnnyQ54j-Cl0NHfQN-7445" value="16" style="rounded=0;whiteSpace=wrap;html=1;fontSize=33;" parent="ea-bZZUWoCOGceE9sefl-2" vertex="1">
          <mxGeometry x="720" y="590" width="160" height="160" as="geometry" />
        </mxCell>
        <mxCell id="761dnnyQ54j-Cl0NHfQN-7446" value="24" style="rounded=0;whiteSpace=wrap;html=1;fontSize=33;" parent="ea-bZZUWoCOGceE9sefl-2" vertex="1">
          <mxGeometry x="880" y="510" width="240" height="240" as="geometry" />
        </mxCell>
        <mxCell id="761dnnyQ54j-Cl0NHfQN-7447" value="59" style="rounded=0;whiteSpace=wrap;html=1;fontSize=33;" parent="ea-bZZUWoCOGceE9sefl-2" vertex="1">
          <mxGeometry width="590" height="590" as="geometry" />
        </mxCell>
        <mxCell id="761dnnyQ54j-Cl0NHfQN-7448" value="29" style="rounded=0;whiteSpace=wrap;html=1;fontSize=33;" parent="ea-bZZUWoCOGceE9sefl-2" vertex="1">
          <mxGeometry x="590" y="300" width="290" height="290" as="geometry" />
        </mxCell>
        <mxCell id="761dnnyQ54j-Cl0NHfQN-7449" value="11" style="rounded=0;whiteSpace=wrap;html=1;fontSize=33;" parent="ea-bZZUWoCOGceE9sefl-2" vertex="1">
          <mxGeometry x="880" y="400" width="110" height="110" as="geometry" />
        </mxCell>
        <mxCell id="761dnnyQ54j-Cl0NHfQN-7450" value="13" style="rounded=0;whiteSpace=wrap;html=1;fontSize=33;" parent="ea-bZZUWoCOGceE9sefl-2" vertex="1">
          <mxGeometry x="990" y="380" width="130" height="130" as="geometry" />
        </mxCell>
        <mxCell id="761dnnyQ54j-Cl0NHfQN-7451" value="9" style="rounded=0;whiteSpace=wrap;html=1;fontSize=33;" parent="ea-bZZUWoCOGceE9sefl-2" vertex="1">
          <mxGeometry x="880" y="310" width="90" height="90" as="geometry" />
        </mxCell>
        <mxCell id="761dnnyQ54j-Cl0NHfQN-7452" value="2" style="rounded=0;whiteSpace=wrap;html=1;fontSize=33;" parent="ea-bZZUWoCOGceE9sefl-2" vertex="1">
          <mxGeometry x="970" y="380" width="20" height="20" as="geometry" />
        </mxCell>
        <mxCell id="761dnnyQ54j-Cl0NHfQN-7453" value="15" style="rounded=0;whiteSpace=wrap;html=1;fontSize=33;" parent="ea-bZZUWoCOGceE9sefl-2" vertex="1">
          <mxGeometry x="970" y="230" width="150" height="150" as="geometry" />
        </mxCell>
        <mxCell id="761dnnyQ54j-Cl0NHfQN-7454" value="1" style="rounded=0;whiteSpace=wrap;html=1;fontSize=33;" parent="ea-bZZUWoCOGceE9sefl-2" vertex="1">
          <mxGeometry x="880" y="300" width="10" height="10" as="geometry" />
        </mxCell>
        <mxCell id="761dnnyQ54j-Cl0NHfQN-7455" value="8" style="rounded=0;whiteSpace=wrap;html=1;fontSize=33;" parent="ea-bZZUWoCOGceE9sefl-2" vertex="1">
          <mxGeometry x="890" y="230" width="80" height="80" as="geometry" />
        </mxCell>
        <mxCell id="761dnnyQ54j-Cl0NHfQN-7456" value="30" style="rounded=0;whiteSpace=wrap;html=1;fontSize=33;" parent="ea-bZZUWoCOGceE9sefl-2" vertex="1">
          <mxGeometry x="590" width="300" height="300" as="geometry" />
        </mxCell>
        <mxCell id="761dnnyQ54j-Cl0NHfQN-7457" value="23" style="rounded=0;whiteSpace=wrap;html=1;fontSize=33;" parent="ea-bZZUWoCOGceE9sefl-2" vertex="1">
          <mxGeometry x="890" width="230" height="230" as="geometry" />
        </mxCell>
        <mxCell id="ea-bZZUWoCOGceE9sefl-3" value="" style="group;fontSize=33;flipV=1;" parent="1" vertex="1" connectable="0">
          <mxGeometry x="27150" y="-4340" width="1120" height="950" as="geometry" />
        </mxCell>
        <mxCell id="761dnnyQ54j-Cl0NHfQN-5898" value="46" style="rounded=0;whiteSpace=wrap;html=1;fontSize=33;" parent="ea-bZZUWoCOGceE9sefl-3" vertex="1">
          <mxGeometry y="490" width="460" height="460" as="geometry" />
        </mxCell>
        <mxCell id="761dnnyQ54j-Cl0NHfQN-5899" value="28" style="rounded=0;whiteSpace=wrap;html=1;fontSize=33;" parent="ea-bZZUWoCOGceE9sefl-3" vertex="1">
          <mxGeometry x="460" y="670" width="280" height="280" as="geometry" />
        </mxCell>
        <mxCell id="761dnnyQ54j-Cl0NHfQN-5900" value="38" style="rounded=0;whiteSpace=wrap;html=1;fontSize=33;" parent="ea-bZZUWoCOGceE9sefl-3" vertex="1">
          <mxGeometry x="740" y="570" width="380" height="380" as="geometry" />
        </mxCell>
        <mxCell id="761dnnyQ54j-Cl0NHfQN-5901" value="18" style="rounded=0;whiteSpace=wrap;html=1;fontSize=33;" parent="ea-bZZUWoCOGceE9sefl-3" vertex="1">
          <mxGeometry x="460" y="490" width="180" height="180" as="geometry" />
        </mxCell>
        <mxCell id="761dnnyQ54j-Cl0NHfQN-5902" value="10" style="rounded=0;whiteSpace=wrap;html=1;fontSize=33;" parent="ea-bZZUWoCOGceE9sefl-3" vertex="1">
          <mxGeometry x="640" y="570" width="100" height="100" as="geometry" />
        </mxCell>
        <mxCell id="761dnnyQ54j-Cl0NHfQN-5903" value="8" style="rounded=0;whiteSpace=wrap;html=1;fontSize=33;" parent="ea-bZZUWoCOGceE9sefl-3" vertex="1">
          <mxGeometry x="640" y="490" width="80" height="80" as="geometry" />
        </mxCell>
        <mxCell id="761dnnyQ54j-Cl0NHfQN-5904" value="13" style="rounded=0;whiteSpace=wrap;html=1;fontSize=33;" parent="ea-bZZUWoCOGceE9sefl-3" vertex="1">
          <mxGeometry x="720" y="440" width="130" height="130" as="geometry" />
        </mxCell>
        <mxCell id="761dnnyQ54j-Cl0NHfQN-5905" value="27" style="rounded=0;whiteSpace=wrap;html=1;fontSize=33;" parent="ea-bZZUWoCOGceE9sefl-3" vertex="1">
          <mxGeometry x="850" y="300" width="270" height="270" as="geometry" />
        </mxCell>
        <mxCell id="761dnnyQ54j-Cl0NHfQN-5906" value="49" style="rounded=0;whiteSpace=wrap;html=1;fontSize=33;" parent="ea-bZZUWoCOGceE9sefl-3" vertex="1">
          <mxGeometry width="490" height="490" as="geometry" />
        </mxCell>
        <mxCell id="761dnnyQ54j-Cl0NHfQN-5907" value="16" style="rounded=0;whiteSpace=wrap;html=1;fontSize=33;" parent="ea-bZZUWoCOGceE9sefl-3" vertex="1">
          <mxGeometry x="490" y="330" width="160" height="160" as="geometry" />
        </mxCell>
        <mxCell id="761dnnyQ54j-Cl0NHfQN-5908" value="7" style="rounded=0;whiteSpace=wrap;html=1;fontSize=33;" parent="ea-bZZUWoCOGceE9sefl-3" vertex="1">
          <mxGeometry x="650" y="420" width="70" height="70" as="geometry" />
        </mxCell>
        <mxCell id="761dnnyQ54j-Cl0NHfQN-5909" value="2" style="rounded=0;whiteSpace=wrap;html=1;fontSize=33;" parent="ea-bZZUWoCOGceE9sefl-3" vertex="1">
          <mxGeometry x="720" y="420" width="20" height="20" as="geometry" />
        </mxCell>
        <mxCell id="761dnnyQ54j-Cl0NHfQN-5910" value="11" style="rounded=0;whiteSpace=wrap;html=1;fontSize=33;" parent="ea-bZZUWoCOGceE9sefl-3" vertex="1">
          <mxGeometry x="740" y="330" width="110" height="110" as="geometry" />
        </mxCell>
        <mxCell id="761dnnyQ54j-Cl0NHfQN-5911" value="9" style="rounded=0;whiteSpace=wrap;html=1;fontSize=33;" parent="ea-bZZUWoCOGceE9sefl-3" vertex="1">
          <mxGeometry x="650" y="330" width="90" height="90" as="geometry" />
        </mxCell>
        <mxCell id="761dnnyQ54j-Cl0NHfQN-5912" value="33" style="rounded=0;whiteSpace=wrap;html=1;fontSize=33;" parent="ea-bZZUWoCOGceE9sefl-3" vertex="1">
          <mxGeometry x="490" width="330" height="330" as="geometry" />
        </mxCell>
        <mxCell id="761dnnyQ54j-Cl0NHfQN-5913" value="3" style="rounded=0;whiteSpace=wrap;html=1;fontSize=33;" parent="ea-bZZUWoCOGceE9sefl-3" vertex="1">
          <mxGeometry x="820" y="300" width="30" height="30" as="geometry" />
        </mxCell>
        <mxCell id="761dnnyQ54j-Cl0NHfQN-5914" value="30" style="rounded=0;whiteSpace=wrap;html=1;fontSize=33;" parent="ea-bZZUWoCOGceE9sefl-3" vertex="1">
          <mxGeometry x="820" width="300" height="300" as="geometry" />
        </mxCell>
        <mxCell id="ea-bZZUWoCOGceE9sefl-4" value="" style="group;fontSize=33;flipV=1;" parent="1" vertex="1" connectable="0">
          <mxGeometry x="27130" y="-5340" width="1120" height="790" as="geometry" />
        </mxCell>
        <mxCell id="761dnnyQ54j-Cl0NHfQN-5826" value="35" style="rounded=0;whiteSpace=wrap;html=1;fontSize=33;" parent="ea-bZZUWoCOGceE9sefl-4" vertex="1">
          <mxGeometry y="440" width="350" height="350" as="geometry" />
        </mxCell>
        <mxCell id="761dnnyQ54j-Cl0NHfQN-5827" value="26" style="rounded=0;whiteSpace=wrap;html=1;fontSize=33;" parent="ea-bZZUWoCOGceE9sefl-4" vertex="1">
          <mxGeometry x="350" y="530" width="260" height="260" as="geometry" />
        </mxCell>
        <mxCell id="761dnnyQ54j-Cl0NHfQN-5828" value="20" style="rounded=0;whiteSpace=wrap;html=1;fontSize=33;" parent="ea-bZZUWoCOGceE9sefl-4" vertex="1">
          <mxGeometry x="610" y="590" width="200" height="200" as="geometry" />
        </mxCell>
        <mxCell id="761dnnyQ54j-Cl0NHfQN-5829" value="12" style="rounded=0;whiteSpace=wrap;html=1;fontSize=33;" parent="ea-bZZUWoCOGceE9sefl-4" vertex="1">
          <mxGeometry x="810" y="670" width="120" height="120" as="geometry" />
        </mxCell>
        <mxCell id="761dnnyQ54j-Cl0NHfQN-5830" value="19" style="rounded=0;whiteSpace=wrap;html=1;fontSize=33;" parent="ea-bZZUWoCOGceE9sefl-4" vertex="1">
          <mxGeometry x="930" y="600" width="190" height="190" as="geometry" />
        </mxCell>
        <mxCell id="761dnnyQ54j-Cl0NHfQN-5831" value="5" style="rounded=0;whiteSpace=wrap;html=1;fontSize=33;" parent="ea-bZZUWoCOGceE9sefl-4" vertex="1">
          <mxGeometry x="810" y="620" width="50" height="50" as="geometry" />
        </mxCell>
        <mxCell id="761dnnyQ54j-Cl0NHfQN-5832" value="7" style="rounded=0;whiteSpace=wrap;html=1;fontSize=33;" parent="ea-bZZUWoCOGceE9sefl-4" vertex="1">
          <mxGeometry x="860" y="600" width="70" height="70" as="geometry" />
        </mxCell>
        <mxCell id="761dnnyQ54j-Cl0NHfQN-5833" value="3" style="rounded=0;whiteSpace=wrap;html=1;fontSize=33;" parent="ea-bZZUWoCOGceE9sefl-4" vertex="1">
          <mxGeometry x="810" y="590" width="30" height="30" as="geometry" />
        </mxCell>
        <mxCell id="761dnnyQ54j-Cl0NHfQN-5834" value="2" style="rounded=0;whiteSpace=wrap;html=1;fontSize=33;" parent="ea-bZZUWoCOGceE9sefl-4" vertex="1">
          <mxGeometry x="840" y="600" width="20" height="20" as="geometry" />
        </mxCell>
        <mxCell id="761dnnyQ54j-Cl0NHfQN-5835" value="28" style="rounded=0;whiteSpace=wrap;html=1;fontSize=33;" parent="ea-bZZUWoCOGceE9sefl-4" vertex="1">
          <mxGeometry x="840" y="320" width="280" height="280" as="geometry" />
        </mxCell>
        <mxCell id="761dnnyQ54j-Cl0NHfQN-5836" value="23" style="rounded=0;whiteSpace=wrap;html=1;fontSize=33;" parent="ea-bZZUWoCOGceE9sefl-4" vertex="1">
          <mxGeometry x="610" y="360" width="230" height="230" as="geometry" />
        </mxCell>
        <mxCell id="761dnnyQ54j-Cl0NHfQN-5837" value="9" style="rounded=0;whiteSpace=wrap;html=1;fontSize=33;" parent="ea-bZZUWoCOGceE9sefl-4" vertex="1">
          <mxGeometry x="350" y="440" width="90" height="90" as="geometry" />
        </mxCell>
        <mxCell id="761dnnyQ54j-Cl0NHfQN-5838" value="17" style="rounded=0;whiteSpace=wrap;html=1;fontSize=33;" parent="ea-bZZUWoCOGceE9sefl-4" vertex="1">
          <mxGeometry x="440" y="360" width="170" height="170" as="geometry" />
        </mxCell>
        <mxCell id="761dnnyQ54j-Cl0NHfQN-5839" value="44" style="rounded=0;whiteSpace=wrap;html=1;fontSize=33;" parent="ea-bZZUWoCOGceE9sefl-4" vertex="1">
          <mxGeometry width="440" height="440" as="geometry" />
        </mxCell>
        <mxCell id="761dnnyQ54j-Cl0NHfQN-5840" value="36" style="rounded=0;whiteSpace=wrap;html=1;fontSize=33;" parent="ea-bZZUWoCOGceE9sefl-4" vertex="1">
          <mxGeometry x="440" width="360" height="360" as="geometry" />
        </mxCell>
        <mxCell id="761dnnyQ54j-Cl0NHfQN-5841" value="4" style="rounded=0;whiteSpace=wrap;html=1;fontSize=33;" parent="ea-bZZUWoCOGceE9sefl-4" vertex="1">
          <mxGeometry x="800" y="320" width="40" height="40" as="geometry" />
        </mxCell>
        <mxCell id="761dnnyQ54j-Cl0NHfQN-5842" value="32" style="rounded=0;whiteSpace=wrap;html=1;fontSize=33;" parent="ea-bZZUWoCOGceE9sefl-4" vertex="1">
          <mxGeometry x="800" width="320" height="320" as="geometry" />
        </mxCell>
        <mxCell id="ea-bZZUWoCOGceE9sefl-5" value="" style="group;fontSize=33;flipV=1;" parent="1" vertex="1" connectable="0">
          <mxGeometry x="27120" y="-6540" width="1120" height="990" as="geometry" />
        </mxCell>
        <mxCell id="761dnnyQ54j-Cl0NHfQN-3602" value="46" style="rounded=0;whiteSpace=wrap;html=1;fontSize=33;" parent="ea-bZZUWoCOGceE9sefl-5" vertex="1">
          <mxGeometry y="530" width="460" height="460" as="geometry" />
        </mxCell>
        <mxCell id="761dnnyQ54j-Cl0NHfQN-3603" value="28" style="rounded=0;whiteSpace=wrap;html=1;fontSize=33;" parent="ea-bZZUWoCOGceE9sefl-5" vertex="1">
          <mxGeometry x="460" y="710" width="280" height="280" as="geometry" />
        </mxCell>
        <mxCell id="761dnnyQ54j-Cl0NHfQN-3604" value="38" style="rounded=0;whiteSpace=wrap;html=1;fontSize=33;" parent="ea-bZZUWoCOGceE9sefl-5" vertex="1">
          <mxGeometry x="740" y="610" width="380" height="380" as="geometry" />
        </mxCell>
        <mxCell id="761dnnyQ54j-Cl0NHfQN-3605" value="18" style="rounded=0;whiteSpace=wrap;html=1;fontSize=33;" parent="ea-bZZUWoCOGceE9sefl-5" vertex="1">
          <mxGeometry x="460" y="530" width="180" height="180" as="geometry" />
        </mxCell>
        <mxCell id="761dnnyQ54j-Cl0NHfQN-3606" value="10" style="rounded=0;whiteSpace=wrap;html=1;fontSize=33;" parent="ea-bZZUWoCOGceE9sefl-5" vertex="1">
          <mxGeometry x="640" y="610" width="100" height="100" as="geometry" />
        </mxCell>
        <mxCell id="761dnnyQ54j-Cl0NHfQN-3607" value="17" style="rounded=0;whiteSpace=wrap;html=1;fontSize=33;" parent="ea-bZZUWoCOGceE9sefl-5" vertex="1">
          <mxGeometry x="640" y="440" width="170" height="170" as="geometry" />
        </mxCell>
        <mxCell id="761dnnyQ54j-Cl0NHfQN-3608" value="31" style="rounded=0;whiteSpace=wrap;html=1;fontSize=33;" parent="ea-bZZUWoCOGceE9sefl-5" vertex="1">
          <mxGeometry x="810" y="300" width="310" height="310" as="geometry" />
        </mxCell>
        <mxCell id="761dnnyQ54j-Cl0NHfQN-3609" value="53" style="rounded=0;whiteSpace=wrap;html=1;fontSize=33;" parent="ea-bZZUWoCOGceE9sefl-5" vertex="1">
          <mxGeometry width="530" height="530" as="geometry" />
        </mxCell>
        <mxCell id="761dnnyQ54j-Cl0NHfQN-3610" value="11" style="rounded=0;whiteSpace=wrap;html=1;fontSize=33;" parent="ea-bZZUWoCOGceE9sefl-5" vertex="1">
          <mxGeometry x="530" y="420" width="110" height="110" as="geometry" />
        </mxCell>
        <mxCell id="761dnnyQ54j-Cl0NHfQN-3611" value="2" style="rounded=0;whiteSpace=wrap;html=1;fontSize=33;" parent="ea-bZZUWoCOGceE9sefl-5" vertex="1">
          <mxGeometry x="640" y="420" width="20" height="20" as="geometry" />
        </mxCell>
        <mxCell id="761dnnyQ54j-Cl0NHfQN-3612" value="15" style="rounded=0;whiteSpace=wrap;html=1;fontSize=33;" parent="ea-bZZUWoCOGceE9sefl-5" vertex="1">
          <mxGeometry x="660" y="290" width="150" height="150" as="geometry" />
        </mxCell>
        <mxCell id="761dnnyQ54j-Cl0NHfQN-3613" value="13" style="rounded=0;whiteSpace=wrap;html=1;fontSize=33;" parent="ea-bZZUWoCOGceE9sefl-5" vertex="1">
          <mxGeometry x="530" y="290" width="130" height="130" as="geometry" />
        </mxCell>
        <mxCell id="761dnnyQ54j-Cl0NHfQN-3614" value="1" style="rounded=0;whiteSpace=wrap;html=1;fontSize=33;" parent="ea-bZZUWoCOGceE9sefl-5" vertex="1">
          <mxGeometry x="810" y="290" width="10" height="10" as="geometry" />
        </mxCell>
        <mxCell id="761dnnyQ54j-Cl0NHfQN-3615" value="30" style="rounded=0;whiteSpace=wrap;html=1;fontSize=33;" parent="ea-bZZUWoCOGceE9sefl-5" vertex="1">
          <mxGeometry x="820" width="300" height="300" as="geometry" />
        </mxCell>
        <mxCell id="761dnnyQ54j-Cl0NHfQN-3616" value="29" style="rounded=0;whiteSpace=wrap;html=1;fontSize=33;" parent="ea-bZZUWoCOGceE9sefl-5" vertex="1">
          <mxGeometry x="530" width="290" height="290" as="geometry" />
        </mxCell>
        <mxCell id="ea-bZZUWoCOGceE9sefl-6" value="" style="group;fontSize=33;flipV=1;" parent="1" vertex="1" connectable="0">
          <mxGeometry x="27140" y="-7710" width="1120" height="930" as="geometry" />
        </mxCell>
        <mxCell id="761dnnyQ54j-Cl0NHfQN-2714" value="42" style="rounded=0;whiteSpace=wrap;html=1;fontSize=33;" parent="ea-bZZUWoCOGceE9sefl-6" vertex="1">
          <mxGeometry y="510" width="420" height="420" as="geometry" />
        </mxCell>
        <mxCell id="761dnnyQ54j-Cl0NHfQN-2715" value="33" style="rounded=0;whiteSpace=wrap;html=1;fontSize=33;" parent="ea-bZZUWoCOGceE9sefl-6" vertex="1">
          <mxGeometry x="420" y="600" width="330" height="330" as="geometry" />
        </mxCell>
        <mxCell id="761dnnyQ54j-Cl0NHfQN-2716" value="37" style="rounded=0;whiteSpace=wrap;html=1;fontSize=33;" parent="ea-bZZUWoCOGceE9sefl-6" vertex="1">
          <mxGeometry x="750" y="560" width="370" height="370" as="geometry" />
        </mxCell>
        <mxCell id="761dnnyQ54j-Cl0NHfQN-2717" value="9" style="rounded=0;whiteSpace=wrap;html=1;fontSize=33;" parent="ea-bZZUWoCOGceE9sefl-6" vertex="1">
          <mxGeometry x="420" y="510" width="90" height="90" as="geometry" />
        </mxCell>
        <mxCell id="761dnnyQ54j-Cl0NHfQN-2718" value="24" style="rounded=0;whiteSpace=wrap;html=1;fontSize=33;" parent="ea-bZZUWoCOGceE9sefl-6" vertex="1">
          <mxGeometry x="510" y="360" width="240" height="240" as="geometry" />
        </mxCell>
        <mxCell id="761dnnyQ54j-Cl0NHfQN-2719" value="20" style="rounded=0;whiteSpace=wrap;html=1;fontSize=33;" parent="ea-bZZUWoCOGceE9sefl-6" vertex="1">
          <mxGeometry x="750" y="360" width="200" height="200" as="geometry" />
        </mxCell>
        <mxCell id="761dnnyQ54j-Cl0NHfQN-2720" value="17" style="rounded=0;whiteSpace=wrap;html=1;fontSize=33;" parent="ea-bZZUWoCOGceE9sefl-6" vertex="1">
          <mxGeometry x="950" y="390" width="170" height="170" as="geometry" />
        </mxCell>
        <mxCell id="761dnnyQ54j-Cl0NHfQN-2721" value="3" style="rounded=0;whiteSpace=wrap;html=1;fontSize=33;" parent="ea-bZZUWoCOGceE9sefl-6" vertex="1">
          <mxGeometry x="950" y="360" width="30" height="30" as="geometry" />
        </mxCell>
        <mxCell id="761dnnyQ54j-Cl0NHfQN-2722" value="14" style="rounded=0;whiteSpace=wrap;html=1;fontSize=33;" parent="ea-bZZUWoCOGceE9sefl-6" vertex="1">
          <mxGeometry x="980" y="250" width="140" height="140" as="geometry" />
        </mxCell>
        <mxCell id="761dnnyQ54j-Cl0NHfQN-2723" value="51" style="rounded=0;whiteSpace=wrap;html=1;fontSize=33;" parent="ea-bZZUWoCOGceE9sefl-6" vertex="1">
          <mxGeometry width="510" height="510" as="geometry" />
        </mxCell>
        <mxCell id="761dnnyQ54j-Cl0NHfQN-2724" value="36" style="rounded=0;whiteSpace=wrap;html=1;fontSize=33;" parent="ea-bZZUWoCOGceE9sefl-6" vertex="1">
          <mxGeometry x="510" width="360" height="360" as="geometry" />
        </mxCell>
        <mxCell id="761dnnyQ54j-Cl0NHfQN-2725" value="11" style="rounded=0;whiteSpace=wrap;html=1;fontSize=33;" parent="ea-bZZUWoCOGceE9sefl-6" vertex="1">
          <mxGeometry x="870" y="250" width="110" height="110" as="geometry" />
        </mxCell>
        <mxCell id="761dnnyQ54j-Cl0NHfQN-2726" value="25" style="rounded=0;whiteSpace=wrap;html=1;fontSize=33;" parent="ea-bZZUWoCOGceE9sefl-6" vertex="1">
          <mxGeometry x="870" width="250" height="250" as="geometry" />
        </mxCell>
        <mxCell id="ea-bZZUWoCOGceE9sefl-7" value="" style="group;fontSize=33;flipV=1;" parent="1" vertex="1" connectable="0">
          <mxGeometry x="27110" y="-8730" width="1120" height="850" as="geometry" />
        </mxCell>
        <mxCell id="761dnnyQ54j-Cl0NHfQN-2658" value="42" style="rounded=0;whiteSpace=wrap;html=1;fontSize=33;" parent="ea-bZZUWoCOGceE9sefl-7" vertex="1">
          <mxGeometry y="430" width="420" height="420" as="geometry" />
        </mxCell>
        <mxCell id="761dnnyQ54j-Cl0NHfQN-2659" value="41" style="rounded=0;whiteSpace=wrap;html=1;fontSize=33;" parent="ea-bZZUWoCOGceE9sefl-7" vertex="1">
          <mxGeometry x="420" y="440" width="410" height="410" as="geometry" />
        </mxCell>
        <mxCell id="761dnnyQ54j-Cl0NHfQN-2660" value="29" style="rounded=0;whiteSpace=wrap;html=1;fontSize=33;" parent="ea-bZZUWoCOGceE9sefl-7" vertex="1">
          <mxGeometry x="830" y="560" width="290" height="290" as="geometry" />
        </mxCell>
        <mxCell id="761dnnyQ54j-Cl0NHfQN-2661" value="12" style="rounded=0;whiteSpace=wrap;html=1;fontSize=33;" parent="ea-bZZUWoCOGceE9sefl-7" vertex="1">
          <mxGeometry x="830" y="440" width="120" height="120" as="geometry" />
        </mxCell>
        <mxCell id="761dnnyQ54j-Cl0NHfQN-2662" value="17" style="rounded=0;whiteSpace=wrap;html=1;fontSize=33;" parent="ea-bZZUWoCOGceE9sefl-7" vertex="1">
          <mxGeometry x="950" y="390" width="170" height="170" as="geometry" />
        </mxCell>
        <mxCell id="761dnnyQ54j-Cl0NHfQN-2663" value="1" style="rounded=0;whiteSpace=wrap;html=1;fontSize=33;" parent="ea-bZZUWoCOGceE9sefl-7" vertex="1">
          <mxGeometry x="420" y="430" width="10" height="10" as="geometry" />
        </mxCell>
        <mxCell id="761dnnyQ54j-Cl0NHfQN-2664" value="44" style="rounded=0;whiteSpace=wrap;html=1;fontSize=33;" parent="ea-bZZUWoCOGceE9sefl-7" vertex="1">
          <mxGeometry x="430" width="440" height="440" as="geometry" />
        </mxCell>
        <mxCell id="761dnnyQ54j-Cl0NHfQN-2665" value="8" style="rounded=0;whiteSpace=wrap;html=1;fontSize=33;" parent="ea-bZZUWoCOGceE9sefl-7" vertex="1">
          <mxGeometry x="870" y="360" width="80" height="80" as="geometry" />
        </mxCell>
        <mxCell id="761dnnyQ54j-Cl0NHfQN-2666" value="3" style="rounded=0;whiteSpace=wrap;html=1;fontSize=33;" parent="ea-bZZUWoCOGceE9sefl-7" vertex="1">
          <mxGeometry x="950" y="360" width="30" height="30" as="geometry" />
        </mxCell>
        <mxCell id="761dnnyQ54j-Cl0NHfQN-2667" value="14" style="rounded=0;whiteSpace=wrap;html=1;fontSize=33;" parent="ea-bZZUWoCOGceE9sefl-7" vertex="1">
          <mxGeometry x="980" y="250" width="140" height="140" as="geometry" />
        </mxCell>
        <mxCell id="761dnnyQ54j-Cl0NHfQN-2668" value="11" style="rounded=0;whiteSpace=wrap;html=1;fontSize=33;" parent="ea-bZZUWoCOGceE9sefl-7" vertex="1">
          <mxGeometry x="870" y="250" width="110" height="110" as="geometry" />
        </mxCell>
        <mxCell id="761dnnyQ54j-Cl0NHfQN-2669" value="25" style="rounded=0;whiteSpace=wrap;html=1;fontSize=33;" parent="ea-bZZUWoCOGceE9sefl-7" vertex="1">
          <mxGeometry x="870" width="250" height="250" as="geometry" />
        </mxCell>
        <mxCell id="761dnnyQ54j-Cl0NHfQN-2670" value="43" style="rounded=0;whiteSpace=wrap;html=1;fontSize=33;" parent="ea-bZZUWoCOGceE9sefl-7" vertex="1">
          <mxGeometry width="430" height="430" as="geometry" />
        </mxCell>
        <mxCell id="ea-bZZUWoCOGceE9sefl-8" value="" style="group;flipV=1;" parent="1" vertex="1" connectable="0">
          <mxGeometry x="25710" y="-8790" width="1120" height="830" as="geometry" />
        </mxCell>
        <mxCell id="761dnnyQ54j-Cl0NHfQN-2574" value="39" style="rounded=0;whiteSpace=wrap;html=1;fontSize=33;" parent="ea-bZZUWoCOGceE9sefl-8" vertex="1">
          <mxGeometry y="440" width="390" height="390" as="geometry" />
        </mxCell>
        <mxCell id="761dnnyQ54j-Cl0NHfQN-2575" value="31" style="rounded=0;whiteSpace=wrap;html=1;fontSize=33;" parent="ea-bZZUWoCOGceE9sefl-8" vertex="1">
          <mxGeometry x="390" y="520" width="310" height="310" as="geometry" />
        </mxCell>
        <mxCell id="761dnnyQ54j-Cl0NHfQN-2576" value="42" style="rounded=0;whiteSpace=wrap;html=1;fontSize=33;" parent="ea-bZZUWoCOGceE9sefl-8" vertex="1">
          <mxGeometry x="700" y="410" width="420" height="420" as="geometry" />
        </mxCell>
        <mxCell id="761dnnyQ54j-Cl0NHfQN-2577" value="8" style="rounded=0;whiteSpace=wrap;html=1;fontSize=33;" parent="ea-bZZUWoCOGceE9sefl-8" vertex="1">
          <mxGeometry x="390" y="440" width="80" height="80" as="geometry" />
        </mxCell>
        <mxCell id="761dnnyQ54j-Cl0NHfQN-2578" value="11" style="rounded=0;whiteSpace=wrap;html=1;fontSize=33;" parent="ea-bZZUWoCOGceE9sefl-8" vertex="1">
          <mxGeometry x="470" y="410" width="110" height="110" as="geometry" />
        </mxCell>
        <mxCell id="761dnnyQ54j-Cl0NHfQN-2579" value="12" style="rounded=0;whiteSpace=wrap;html=1;fontSize=33;" parent="ea-bZZUWoCOGceE9sefl-8" vertex="1">
          <mxGeometry x="580" y="400" width="120" height="120" as="geometry" />
        </mxCell>
        <mxCell id="761dnnyQ54j-Cl0NHfQN-2580" value="1" style="rounded=0;whiteSpace=wrap;html=1;fontSize=33;" parent="ea-bZZUWoCOGceE9sefl-8" vertex="1">
          <mxGeometry x="700" y="400" width="10" height="10" as="geometry" />
        </mxCell>
        <mxCell id="761dnnyQ54j-Cl0NHfQN-2581" value="41" style="rounded=0;whiteSpace=wrap;html=1;fontSize=33;" parent="ea-bZZUWoCOGceE9sefl-8" vertex="1">
          <mxGeometry x="710" width="410" height="410" as="geometry" />
        </mxCell>
        <mxCell id="761dnnyQ54j-Cl0NHfQN-2582" value="44" style="rounded=0;whiteSpace=wrap;html=1;fontSize=33;" parent="ea-bZZUWoCOGceE9sefl-8" vertex="1">
          <mxGeometry width="440" height="440" as="geometry" />
        </mxCell>
        <mxCell id="761dnnyQ54j-Cl0NHfQN-2583" value="3" style="rounded=0;whiteSpace=wrap;html=1;fontSize=33;" parent="ea-bZZUWoCOGceE9sefl-8" vertex="1">
          <mxGeometry x="440" y="410" width="30" height="30" as="geometry" />
        </mxCell>
        <mxCell id="761dnnyQ54j-Cl0NHfQN-2584" value="14" style="rounded=0;whiteSpace=wrap;html=1;fontSize=33;" parent="ea-bZZUWoCOGceE9sefl-8" vertex="1">
          <mxGeometry x="440" y="270" width="140" height="140" as="geometry" />
        </mxCell>
        <mxCell id="761dnnyQ54j-Cl0NHfQN-2585" value="13" style="rounded=0;whiteSpace=wrap;html=1;fontSize=33;" parent="ea-bZZUWoCOGceE9sefl-8" vertex="1">
          <mxGeometry x="580" y="270" width="130" height="130" as="geometry" />
        </mxCell>
        <mxCell id="761dnnyQ54j-Cl0NHfQN-2586" value="27" style="rounded=0;whiteSpace=wrap;html=1;fontSize=33;" parent="ea-bZZUWoCOGceE9sefl-8" vertex="1">
          <mxGeometry x="440" width="270" height="270" as="geometry" />
        </mxCell>
        <mxCell id="ea-bZZUWoCOGceE9sefl-9" value="" style="group;flipV=1;" parent="1" vertex="1" connectable="0">
          <mxGeometry x="25710" y="-7630" width="1120" height="750" as="geometry" />
        </mxCell>
        <mxCell id="761dnnyQ54j-Cl0NHfQN-2518" value="36" style="rounded=0;whiteSpace=wrap;html=1;fontSize=33;" parent="ea-bZZUWoCOGceE9sefl-9" vertex="1">
          <mxGeometry y="390" width="360" height="360" as="geometry" />
        </mxCell>
        <mxCell id="761dnnyQ54j-Cl0NHfQN-2519" value="33" style="rounded=0;whiteSpace=wrap;html=1;fontSize=33;" parent="ea-bZZUWoCOGceE9sefl-9" vertex="1">
          <mxGeometry x="360" y="420" width="330" height="330" as="geometry" />
        </mxCell>
        <mxCell id="761dnnyQ54j-Cl0NHfQN-2520" value="19" style="rounded=0;whiteSpace=wrap;html=1;fontSize=33;" parent="ea-bZZUWoCOGceE9sefl-9" vertex="1">
          <mxGeometry x="690" y="560" width="190" height="190" as="geometry" />
        </mxCell>
        <mxCell id="761dnnyQ54j-Cl0NHfQN-2521" value="24" style="rounded=0;whiteSpace=wrap;html=1;fontSize=33;" parent="ea-bZZUWoCOGceE9sefl-9" vertex="1">
          <mxGeometry x="880" y="510" width="240" height="240" as="geometry" />
        </mxCell>
        <mxCell id="761dnnyQ54j-Cl0NHfQN-2522" value="14" style="rounded=0;whiteSpace=wrap;html=1;fontSize=33;" parent="ea-bZZUWoCOGceE9sefl-9" vertex="1">
          <mxGeometry x="690" y="420" width="140" height="140" as="geometry" />
        </mxCell>
        <mxCell id="761dnnyQ54j-Cl0NHfQN-2523" value="5" style="rounded=0;whiteSpace=wrap;html=1;fontSize=33;" parent="ea-bZZUWoCOGceE9sefl-9" vertex="1">
          <mxGeometry x="830" y="510" width="50" height="50" as="geometry" />
        </mxCell>
        <mxCell id="761dnnyQ54j-Cl0NHfQN-2524" value="9" style="rounded=0;whiteSpace=wrap;html=1;fontSize=33;" parent="ea-bZZUWoCOGceE9sefl-9" vertex="1">
          <mxGeometry x="830" y="420" width="90" height="90" as="geometry" />
        </mxCell>
        <mxCell id="761dnnyQ54j-Cl0NHfQN-2525" value="20" style="rounded=0;whiteSpace=wrap;html=1;fontSize=33;" parent="ea-bZZUWoCOGceE9sefl-9" vertex="1">
          <mxGeometry x="920" y="310" width="200" height="200" as="geometry" />
        </mxCell>
        <mxCell id="761dnnyQ54j-Cl0NHfQN-2526" value="3" style="rounded=0;whiteSpace=wrap;html=1;fontSize=33;" parent="ea-bZZUWoCOGceE9sefl-9" vertex="1">
          <mxGeometry x="360" y="390" width="30" height="30" as="geometry" />
        </mxCell>
        <mxCell id="761dnnyQ54j-Cl0NHfQN-2527" value="42" style="rounded=0;whiteSpace=wrap;html=1;fontSize=33;" parent="ea-bZZUWoCOGceE9sefl-9" vertex="1">
          <mxGeometry x="390" width="420" height="420" as="geometry" />
        </mxCell>
        <mxCell id="761dnnyQ54j-Cl0NHfQN-2528" value="11" style="rounded=0;whiteSpace=wrap;html=1;fontSize=33;" parent="ea-bZZUWoCOGceE9sefl-9" vertex="1">
          <mxGeometry x="810" y="310" width="110" height="110" as="geometry" />
        </mxCell>
        <mxCell id="761dnnyQ54j-Cl0NHfQN-2529" value="31" style="rounded=0;whiteSpace=wrap;html=1;fontSize=33;" parent="ea-bZZUWoCOGceE9sefl-9" vertex="1">
          <mxGeometry x="810" width="310" height="310" as="geometry" />
        </mxCell>
        <mxCell id="761dnnyQ54j-Cl0NHfQN-2530" value="39" style="rounded=0;whiteSpace=wrap;html=1;fontSize=33;" parent="ea-bZZUWoCOGceE9sefl-9" vertex="1">
          <mxGeometry width="390" height="390" as="geometry" />
        </mxCell>
        <mxCell id="ea-bZZUWoCOGceE9sefl-10" value="" style="group;flipV=1;" parent="1" vertex="1" connectable="0">
          <mxGeometry x="25710" y="-6710" width="1120" height="750" as="geometry" />
        </mxCell>
        <mxCell id="761dnnyQ54j-Cl0NHfQN-2490" value="33" style="rounded=0;whiteSpace=wrap;html=1;fontSize=33;" parent="ea-bZZUWoCOGceE9sefl-10" vertex="1">
          <mxGeometry y="420" width="330" height="330" as="geometry" />
        </mxCell>
        <mxCell id="761dnnyQ54j-Cl0NHfQN-2491" value="24" style="rounded=0;whiteSpace=wrap;html=1;fontSize=33;" parent="ea-bZZUWoCOGceE9sefl-10" vertex="1">
          <mxGeometry x="330" y="510" width="240" height="240" as="geometry" />
        </mxCell>
        <mxCell id="761dnnyQ54j-Cl0NHfQN-2492" value="19" style="rounded=0;whiteSpace=wrap;html=1;fontSize=33;" parent="ea-bZZUWoCOGceE9sefl-10" vertex="1">
          <mxGeometry x="570" y="560" width="190" height="190" as="geometry" />
        </mxCell>
        <mxCell id="761dnnyQ54j-Cl0NHfQN-2493" value="36" style="rounded=0;whiteSpace=wrap;html=1;fontSize=33;" parent="ea-bZZUWoCOGceE9sefl-10" vertex="1">
          <mxGeometry x="760" y="390" width="360" height="360" as="geometry" />
        </mxCell>
        <mxCell id="761dnnyQ54j-Cl0NHfQN-2494" value="5" style="rounded=0;whiteSpace=wrap;html=1;fontSize=33;" parent="ea-bZZUWoCOGceE9sefl-10" vertex="1">
          <mxGeometry x="570" y="510" width="50" height="50" as="geometry" />
        </mxCell>
        <mxCell id="761dnnyQ54j-Cl0NHfQN-2495" value="14" style="rounded=0;whiteSpace=wrap;html=1;fontSize=33;" parent="ea-bZZUWoCOGceE9sefl-10" vertex="1">
          <mxGeometry x="620" y="420" width="140" height="140" as="geometry" />
        </mxCell>
        <mxCell id="761dnnyQ54j-Cl0NHfQN-2496" value="9" style="rounded=0;whiteSpace=wrap;html=1;fontSize=33;" parent="ea-bZZUWoCOGceE9sefl-10" vertex="1">
          <mxGeometry x="330" y="420" width="90" height="90" as="geometry" />
        </mxCell>
        <mxCell id="761dnnyQ54j-Cl0NHfQN-2497" value="20" style="rounded=0;whiteSpace=wrap;html=1;fontSize=33;" parent="ea-bZZUWoCOGceE9sefl-10" vertex="1">
          <mxGeometry x="420" y="310" width="200" height="200" as="geometry" />
        </mxCell>
        <mxCell id="761dnnyQ54j-Cl0NHfQN-2498" value="11" style="rounded=0;whiteSpace=wrap;html=1;fontSize=33;" parent="ea-bZZUWoCOGceE9sefl-10" vertex="1">
          <mxGeometry x="620" y="310" width="110" height="110" as="geometry" />
        </mxCell>
        <mxCell id="761dnnyQ54j-Cl0NHfQN-2499" value="3" style="rounded=0;whiteSpace=wrap;html=1;fontSize=33;" parent="ea-bZZUWoCOGceE9sefl-10" vertex="1">
          <mxGeometry x="730" y="390" width="30" height="30" as="geometry" />
        </mxCell>
        <mxCell id="761dnnyQ54j-Cl0NHfQN-2500" value="39" style="rounded=0;whiteSpace=wrap;html=1;fontSize=33;" parent="ea-bZZUWoCOGceE9sefl-10" vertex="1">
          <mxGeometry x="730" width="390" height="390" as="geometry" />
        </mxCell>
        <mxCell id="761dnnyQ54j-Cl0NHfQN-2501" value="42" style="rounded=0;whiteSpace=wrap;html=1;fontSize=33;" parent="ea-bZZUWoCOGceE9sefl-10" vertex="1">
          <mxGeometry width="420" height="420" as="geometry" />
        </mxCell>
        <mxCell id="761dnnyQ54j-Cl0NHfQN-2502" value="31" style="rounded=0;whiteSpace=wrap;html=1;fontSize=33;" parent="ea-bZZUWoCOGceE9sefl-10" vertex="1">
          <mxGeometry x="420" width="310" height="310" as="geometry" />
        </mxCell>
        <mxCell id="ea-bZZUWoCOGceE9sefl-12" value="" style="rounded=0;whiteSpace=wrap;html=1;fillColor=none;flipV=1;" parent="1" vertex="1">
          <mxGeometry x="25620" y="-7750" width="1290" height="1890" as="geometry" />
        </mxCell>
        <mxCell id="ea-bZZUWoCOGceE9sefl-13" value="" style="group;flipV=1;" parent="1" vertex="1" connectable="0">
          <mxGeometry x="25730" y="-5570" width="1120" height="990" as="geometry" />
        </mxCell>
        <mxCell id="761dnnyQ54j-Cl0NHfQN-1892" value="43" style="rounded=0;whiteSpace=wrap;html=1;fontSize=33;" parent="ea-bZZUWoCOGceE9sefl-13" vertex="1">
          <mxGeometry y="560" width="430" height="430" as="geometry" />
        </mxCell>
        <mxCell id="761dnnyQ54j-Cl0NHfQN-1893" value="30" style="rounded=0;whiteSpace=wrap;html=1;fontSize=33;" parent="ea-bZZUWoCOGceE9sefl-13" vertex="1">
          <mxGeometry x="430" y="690" width="300" height="300" as="geometry" />
        </mxCell>
        <mxCell id="761dnnyQ54j-Cl0NHfQN-1894" value="39" style="rounded=0;whiteSpace=wrap;html=1;fontSize=33;" parent="ea-bZZUWoCOGceE9sefl-13" vertex="1">
          <mxGeometry x="730" y="600" width="390" height="390" as="geometry" />
        </mxCell>
        <mxCell id="761dnnyQ54j-Cl0NHfQN-1895" value="13" style="rounded=0;whiteSpace=wrap;html=1;fontSize=33;" parent="ea-bZZUWoCOGceE9sefl-13" vertex="1">
          <mxGeometry x="430" y="560" width="130" height="130" as="geometry" />
        </mxCell>
        <mxCell id="761dnnyQ54j-Cl0NHfQN-1896" value="17" style="rounded=0;whiteSpace=wrap;html=1;fontSize=33;" parent="ea-bZZUWoCOGceE9sefl-13" vertex="1">
          <mxGeometry x="560" y="520" width="170" height="170" as="geometry" />
        </mxCell>
        <mxCell id="761dnnyQ54j-Cl0NHfQN-1897" value="8" style="rounded=0;whiteSpace=wrap;html=1;fontSize=33;" parent="ea-bZZUWoCOGceE9sefl-13" vertex="1">
          <mxGeometry x="730" y="520" width="80" height="80" as="geometry" />
        </mxCell>
        <mxCell id="761dnnyQ54j-Cl0NHfQN-1898" value="31" style="rounded=0;whiteSpace=wrap;html=1;fontSize=33;" parent="ea-bZZUWoCOGceE9sefl-13" vertex="1">
          <mxGeometry x="810" y="290" width="310" height="310" as="geometry" />
        </mxCell>
        <mxCell id="761dnnyQ54j-Cl0NHfQN-1899" value="56" style="rounded=0;whiteSpace=wrap;html=1;fontSize=33;" parent="ea-bZZUWoCOGceE9sefl-13" vertex="1">
          <mxGeometry width="560" height="560" as="geometry" />
        </mxCell>
        <mxCell id="761dnnyQ54j-Cl0NHfQN-1900" value="25" style="rounded=0;whiteSpace=wrap;html=1;fontSize=33;" parent="ea-bZZUWoCOGceE9sefl-13" vertex="1">
          <mxGeometry x="560" y="270" width="250" height="250" as="geometry" />
        </mxCell>
        <mxCell id="761dnnyQ54j-Cl0NHfQN-1901" value="2" style="rounded=0;whiteSpace=wrap;html=1;fontSize=33;" parent="ea-bZZUWoCOGceE9sefl-13" vertex="1">
          <mxGeometry x="810" y="270" width="20" height="20" as="geometry" />
        </mxCell>
        <mxCell id="761dnnyQ54j-Cl0NHfQN-1902" value="29" style="rounded=0;whiteSpace=wrap;html=1;fontSize=33;" parent="ea-bZZUWoCOGceE9sefl-13" vertex="1">
          <mxGeometry x="830" width="290" height="290" as="geometry" />
        </mxCell>
        <mxCell id="761dnnyQ54j-Cl0NHfQN-1903" value="27" style="rounded=0;whiteSpace=wrap;html=1;fontSize=33;" parent="ea-bZZUWoCOGceE9sefl-13" vertex="1">
          <mxGeometry x="560" width="270" height="270" as="geometry" />
        </mxCell>
        <mxCell id="ea-bZZUWoCOGceE9sefl-14" value="" style="group;flipV=1;" parent="1" vertex="1" connectable="0">
          <mxGeometry x="25790" y="-4300" width="1120" height="810" as="geometry" />
        </mxCell>
        <mxCell id="761dnnyQ54j-Cl0NHfQN-1610" value="38" style="rounded=0;whiteSpace=wrap;html=1;fontSize=33;" parent="ea-bZZUWoCOGceE9sefl-14" vertex="1">
          <mxGeometry y="430" width="380" height="380" as="geometry" />
        </mxCell>
        <mxCell id="761dnnyQ54j-Cl0NHfQN-1611" value="33" style="rounded=0;whiteSpace=wrap;html=1;fontSize=33;" parent="ea-bZZUWoCOGceE9sefl-14" vertex="1">
          <mxGeometry x="380" y="480" width="330" height="330" as="geometry" />
        </mxCell>
        <mxCell id="761dnnyQ54j-Cl0NHfQN-1612" value="41" style="rounded=0;whiteSpace=wrap;html=1;fontSize=33;" parent="ea-bZZUWoCOGceE9sefl-14" vertex="1">
          <mxGeometry x="710" y="400" width="410" height="410" as="geometry" />
        </mxCell>
        <mxCell id="761dnnyQ54j-Cl0NHfQN-1613" value="5" style="rounded=0;whiteSpace=wrap;html=1;fontSize=33;" parent="ea-bZZUWoCOGceE9sefl-14" vertex="1">
          <mxGeometry x="380" y="430" width="50" height="50" as="geometry" />
        </mxCell>
        <mxCell id="761dnnyQ54j-Cl0NHfQN-1614" value="19" style="rounded=0;whiteSpace=wrap;html=1;fontSize=33;" parent="ea-bZZUWoCOGceE9sefl-14" vertex="1">
          <mxGeometry x="430" y="290" width="190" height="190" as="geometry" />
        </mxCell>
        <mxCell id="761dnnyQ54j-Cl0NHfQN-1615" value="9" style="rounded=0;whiteSpace=wrap;html=1;fontSize=33;" parent="ea-bZZUWoCOGceE9sefl-14" vertex="1">
          <mxGeometry x="620" y="390" width="90" height="90" as="geometry" />
        </mxCell>
        <mxCell id="761dnnyQ54j-Cl0NHfQN-1616" value="1" style="rounded=0;whiteSpace=wrap;html=1;fontSize=33;" parent="ea-bZZUWoCOGceE9sefl-14" vertex="1">
          <mxGeometry x="710" y="390" width="10" height="10" as="geometry" />
        </mxCell>
        <mxCell id="761dnnyQ54j-Cl0NHfQN-1617" value="40" style="rounded=0;whiteSpace=wrap;html=1;fontSize=33;" parent="ea-bZZUWoCOGceE9sefl-14" vertex="1">
          <mxGeometry x="720" width="400" height="400" as="geometry" />
        </mxCell>
        <mxCell id="761dnnyQ54j-Cl0NHfQN-1618" value="10" style="rounded=0;whiteSpace=wrap;html=1;fontSize=33;" parent="ea-bZZUWoCOGceE9sefl-14" vertex="1">
          <mxGeometry x="620" y="290" width="100" height="100" as="geometry" />
        </mxCell>
        <mxCell id="761dnnyQ54j-Cl0NHfQN-1619" value="43" style="rounded=0;whiteSpace=wrap;html=1;fontSize=33;" parent="ea-bZZUWoCOGceE9sefl-14" vertex="1">
          <mxGeometry width="430" height="430" as="geometry" />
        </mxCell>
        <mxCell id="761dnnyQ54j-Cl0NHfQN-1620" value="29" style="rounded=0;whiteSpace=wrap;html=1;fontSize=33;" parent="ea-bZZUWoCOGceE9sefl-14" vertex="1">
          <mxGeometry x="430" width="290" height="290" as="geometry" />
        </mxCell>
        <mxCell id="ea-bZZUWoCOGceE9sefl-15" value="" style="group;flipV=1;" parent="1" vertex="1" connectable="0">
          <mxGeometry x="25780" y="-3330" width="1120" height="650" as="geometry" />
        </mxCell>
        <mxCell id="761dnnyQ54j-Cl0NHfQN-1574" value="65" style="rounded=0;whiteSpace=wrap;html=1;fontSize=33;" parent="ea-bZZUWoCOGceE9sefl-15" vertex="1">
          <mxGeometry width="650" height="650" as="geometry" />
        </mxCell>
        <mxCell id="761dnnyQ54j-Cl0NHfQN-1575" value="23" style="rounded=0;whiteSpace=wrap;html=1;fontSize=33;fillColor=#f5f5f5;fontColor=#333333;strokeColor=#666666;" parent="ea-bZZUWoCOGceE9sefl-15" vertex="1">
          <mxGeometry x="650" y="420" width="230" height="230" as="geometry" />
        </mxCell>
        <mxCell id="761dnnyQ54j-Cl0NHfQN-1576" value="24" style="rounded=0;whiteSpace=wrap;html=1;fontSize=33;fillColor=#f5f5f5;fontColor=#333333;strokeColor=#666666;" parent="ea-bZZUWoCOGceE9sefl-15" vertex="1">
          <mxGeometry x="880" y="410" width="240" height="240" as="geometry" />
        </mxCell>
        <mxCell id="761dnnyQ54j-Cl0NHfQN-1577" value="17" style="rounded=0;whiteSpace=wrap;html=1;fontSize=33;fillColor=#f5f5f5;fontColor=#333333;strokeColor=#666666;" parent="ea-bZZUWoCOGceE9sefl-15" vertex="1">
          <mxGeometry x="650" y="250" width="170" height="170" as="geometry" />
        </mxCell>
        <mxCell id="761dnnyQ54j-Cl0NHfQN-1578" value="6" style="rounded=0;whiteSpace=wrap;html=1;fontSize=33;fillColor=#f5f5f5;fontColor=#333333;strokeColor=#666666;" parent="ea-bZZUWoCOGceE9sefl-15" vertex="1">
          <mxGeometry x="820" y="360" width="60" height="60" as="geometry" />
        </mxCell>
        <mxCell id="761dnnyQ54j-Cl0NHfQN-1579" value="5" style="rounded=0;whiteSpace=wrap;html=1;fontSize=33;fillColor=#f5f5f5;fontColor=#333333;strokeColor=#666666;" parent="ea-bZZUWoCOGceE9sefl-15" vertex="1">
          <mxGeometry x="880" y="360" width="50" height="50" as="geometry" />
        </mxCell>
        <mxCell id="761dnnyQ54j-Cl0NHfQN-1580" value="19" style="rounded=0;whiteSpace=wrap;html=1;fontSize=33;fillColor=#f5f5f5;fontColor=#333333;strokeColor=#666666;" parent="ea-bZZUWoCOGceE9sefl-15" vertex="1">
          <mxGeometry x="930" y="220" width="190" height="190" as="geometry" />
        </mxCell>
        <mxCell id="761dnnyQ54j-Cl0NHfQN-1581" value="11" style="rounded=0;whiteSpace=wrap;html=1;fontSize=33;fillColor=#f5f5f5;fontColor=#333333;strokeColor=#666666;" parent="ea-bZZUWoCOGceE9sefl-15" vertex="1">
          <mxGeometry x="820" y="250" width="110" height="110" as="geometry" />
        </mxCell>
        <mxCell id="761dnnyQ54j-Cl0NHfQN-1582" value="25" style="rounded=0;whiteSpace=wrap;html=1;fontSize=33;fillColor=#f5f5f5;fontColor=#333333;strokeColor=#666666;" parent="ea-bZZUWoCOGceE9sefl-15" vertex="1">
          <mxGeometry x="650" width="250" height="250" as="geometry" />
        </mxCell>
        <mxCell id="761dnnyQ54j-Cl0NHfQN-1583" value="3" style="rounded=0;whiteSpace=wrap;html=1;fontSize=33;fillColor=#f5f5f5;fontColor=#333333;strokeColor=#666666;" parent="ea-bZZUWoCOGceE9sefl-15" vertex="1">
          <mxGeometry x="900" y="220" width="30" height="30" as="geometry" />
        </mxCell>
        <mxCell id="761dnnyQ54j-Cl0NHfQN-1584" value="22" style="rounded=0;whiteSpace=wrap;html=1;fontSize=33;fillColor=#f5f5f5;fontColor=#333333;strokeColor=#666666;" parent="ea-bZZUWoCOGceE9sefl-15" vertex="1">
          <mxGeometry x="900" width="220" height="220" as="geometry" />
        </mxCell>
        <mxCell id="ea-bZZUWoCOGceE9sefl-16" value="" style="group;flipV=1;" parent="1" vertex="1" connectable="0">
          <mxGeometry x="25770" y="-2520" width="1120" height="570" as="geometry" />
        </mxCell>
        <mxCell id="761dnnyQ54j-Cl0NHfQN-1490" value="57" style="rounded=0;whiteSpace=wrap;html=1;fontSize=33;" parent="ea-bZZUWoCOGceE9sefl-16" vertex="1">
          <mxGeometry width="570" height="570" as="geometry" />
        </mxCell>
        <mxCell id="761dnnyQ54j-Cl0NHfQN-1491" value="27" style="rounded=0;whiteSpace=wrap;html=1;fontSize=33;fillColor=#f5f5f5;fontColor=#333333;strokeColor=#666666;" parent="ea-bZZUWoCOGceE9sefl-16" vertex="1">
          <mxGeometry x="570" y="300" width="270" height="270" as="geometry" />
        </mxCell>
        <mxCell id="761dnnyQ54j-Cl0NHfQN-1492" value="13" style="rounded=0;whiteSpace=wrap;html=1;fontSize=33;fillColor=#f5f5f5;fontColor=#333333;strokeColor=#666666;" parent="ea-bZZUWoCOGceE9sefl-16" vertex="1">
          <mxGeometry x="840" y="440" width="130" height="130" as="geometry" />
        </mxCell>
        <mxCell id="761dnnyQ54j-Cl0NHfQN-1493" value="15" style="rounded=0;whiteSpace=wrap;html=1;fontSize=33;fillColor=#f5f5f5;fontColor=#333333;strokeColor=#666666;" parent="ea-bZZUWoCOGceE9sefl-16" vertex="1">
          <mxGeometry x="970" y="420" width="150" height="150" as="geometry" />
        </mxCell>
        <mxCell id="761dnnyQ54j-Cl0NHfQN-1494" value="11" style="rounded=0;whiteSpace=wrap;html=1;fontSize=33;fillColor=#f5f5f5;fontColor=#333333;strokeColor=#666666;" parent="ea-bZZUWoCOGceE9sefl-16" vertex="1">
          <mxGeometry x="840" y="330" width="110" height="110" as="geometry" />
        </mxCell>
        <mxCell id="761dnnyQ54j-Cl0NHfQN-1495" value="2" style="rounded=0;whiteSpace=wrap;html=1;fontSize=33;fillColor=#f5f5f5;fontColor=#333333;strokeColor=#666666;" parent="ea-bZZUWoCOGceE9sefl-16" vertex="1">
          <mxGeometry x="950" y="420" width="20" height="20" as="geometry" />
        </mxCell>
        <mxCell id="761dnnyQ54j-Cl0NHfQN-1496" value="17" style="rounded=0;whiteSpace=wrap;html=1;fontSize=33;fillColor=#f5f5f5;fontColor=#333333;strokeColor=#666666;" parent="ea-bZZUWoCOGceE9sefl-16" vertex="1">
          <mxGeometry x="950" y="250" width="170" height="170" as="geometry" />
        </mxCell>
        <mxCell id="761dnnyQ54j-Cl0NHfQN-1497" value="3" style="rounded=0;whiteSpace=wrap;html=1;fontSize=33;fillColor=#f5f5f5;fontColor=#333333;strokeColor=#666666;" parent="ea-bZZUWoCOGceE9sefl-16" vertex="1">
          <mxGeometry x="840" y="300" width="30" height="30" as="geometry" />
        </mxCell>
        <mxCell id="761dnnyQ54j-Cl0NHfQN-1498" value="8" style="rounded=0;whiteSpace=wrap;html=1;fontSize=33;fillColor=#f5f5f5;fontColor=#333333;strokeColor=#666666;" parent="ea-bZZUWoCOGceE9sefl-16" vertex="1">
          <mxGeometry x="870" y="250" width="80" height="80" as="geometry" />
        </mxCell>
        <mxCell id="761dnnyQ54j-Cl0NHfQN-1499" value="30" style="rounded=0;whiteSpace=wrap;html=1;fontSize=33;fillColor=#f5f5f5;fontColor=#333333;strokeColor=#666666;" parent="ea-bZZUWoCOGceE9sefl-16" vertex="1">
          <mxGeometry x="570" width="300" height="300" as="geometry" />
        </mxCell>
        <mxCell id="761dnnyQ54j-Cl0NHfQN-1500" value="25" style="rounded=0;whiteSpace=wrap;html=1;fontSize=33;fillColor=#f5f5f5;fontColor=#333333;strokeColor=#666666;" parent="ea-bZZUWoCOGceE9sefl-16" vertex="1">
          <mxGeometry x="870" width="250" height="250" as="geometry" />
        </mxCell>
        <mxCell id="ea-bZZUWoCOGceE9sefl-17" value="" style="group;flipV=1;" parent="1" vertex="1" connectable="0">
          <mxGeometry x="25780" y="-1750" width="1120" height="550" as="geometry" />
        </mxCell>
        <mxCell id="761dnnyQ54j-Cl0NHfQN-1382" value="55" style="rounded=0;whiteSpace=wrap;html=1;fontSize=33;" parent="ea-bZZUWoCOGceE9sefl-17" vertex="1">
          <mxGeometry width="550" height="550" as="geometry" />
        </mxCell>
        <mxCell id="761dnnyQ54j-Cl0NHfQN-1383" value="25" style="rounded=0;whiteSpace=wrap;html=1;fontSize=33;fillColor=#f5f5f5;fontColor=#333333;strokeColor=#666666;" parent="ea-bZZUWoCOGceE9sefl-17" vertex="1">
          <mxGeometry x="550" y="300" width="250" height="250" as="geometry" />
        </mxCell>
        <mxCell id="761dnnyQ54j-Cl0NHfQN-1384" value="17" style="rounded=0;whiteSpace=wrap;html=1;fontSize=33;fillColor=#f5f5f5;fontColor=#333333;strokeColor=#666666;" parent="ea-bZZUWoCOGceE9sefl-17" vertex="1">
          <mxGeometry x="800" y="380" width="170" height="170" as="geometry" />
        </mxCell>
        <mxCell id="761dnnyQ54j-Cl0NHfQN-1385" value="15" style="rounded=0;whiteSpace=wrap;html=1;fontSize=33;fillColor=#f5f5f5;fontColor=#333333;strokeColor=#666666;" parent="ea-bZZUWoCOGceE9sefl-17" vertex="1">
          <mxGeometry x="970" y="400" width="150" height="150" as="geometry" />
        </mxCell>
        <mxCell id="761dnnyQ54j-Cl0NHfQN-1386" value="2" style="rounded=0;whiteSpace=wrap;html=1;fontSize=33;fillColor=#f5f5f5;fontColor=#333333;strokeColor=#666666;" parent="ea-bZZUWoCOGceE9sefl-17" vertex="1">
          <mxGeometry x="970" y="380" width="20" height="20" as="geometry" />
        </mxCell>
        <mxCell id="761dnnyQ54j-Cl0NHfQN-1387" value="13" style="rounded=0;whiteSpace=wrap;html=1;fontSize=33;fillColor=#f5f5f5;fontColor=#333333;strokeColor=#666666;" parent="ea-bZZUWoCOGceE9sefl-17" vertex="1">
          <mxGeometry x="990" y="270" width="130" height="130" as="geometry" />
        </mxCell>
        <mxCell id="761dnnyQ54j-Cl0NHfQN-1388" value="8" style="rounded=0;whiteSpace=wrap;html=1;fontSize=33;fillColor=#f5f5f5;fontColor=#333333;strokeColor=#666666;" parent="ea-bZZUWoCOGceE9sefl-17" vertex="1">
          <mxGeometry x="800" y="300" width="80" height="80" as="geometry" />
        </mxCell>
        <mxCell id="761dnnyQ54j-Cl0NHfQN-1389" value="11" style="rounded=0;whiteSpace=wrap;html=1;fontSize=33;fillColor=#f5f5f5;fontColor=#333333;strokeColor=#666666;" parent="ea-bZZUWoCOGceE9sefl-17" vertex="1">
          <mxGeometry x="880" y="270" width="110" height="110" as="geometry" />
        </mxCell>
        <mxCell id="761dnnyQ54j-Cl0NHfQN-1390" value="30" style="rounded=0;whiteSpace=wrap;html=1;fontSize=33;fillColor=#f5f5f5;fontColor=#333333;strokeColor=#666666;" parent="ea-bZZUWoCOGceE9sefl-17" vertex="1">
          <mxGeometry x="550" width="300" height="300" as="geometry" />
        </mxCell>
        <mxCell id="761dnnyQ54j-Cl0NHfQN-1391" value="3" style="rounded=0;whiteSpace=wrap;html=1;fontSize=33;fillColor=#f5f5f5;fontColor=#333333;strokeColor=#666666;" parent="ea-bZZUWoCOGceE9sefl-17" vertex="1">
          <mxGeometry x="850" y="270" width="30" height="30" as="geometry" />
        </mxCell>
        <mxCell id="761dnnyQ54j-Cl0NHfQN-1392" value="27" style="rounded=0;whiteSpace=wrap;html=1;fontSize=33;fillColor=#f5f5f5;fontColor=#333333;strokeColor=#666666;" parent="ea-bZZUWoCOGceE9sefl-17" vertex="1">
          <mxGeometry x="850" width="270" height="270" as="geometry" />
        </mxCell>
        <mxCell id="ea-bZZUWoCOGceE9sefl-18" value="" style="group;flipV=1;" parent="1" vertex="1" connectable="0">
          <mxGeometry x="25780" y="-1000" width="1120" height="470" as="geometry" />
        </mxCell>
        <mxCell id="761dnnyQ54j-Cl0NHfQN-1274" value="47" style="rounded=0;whiteSpace=wrap;html=1;fontSize=33;" parent="ea-bZZUWoCOGceE9sefl-18" vertex="1">
          <mxGeometry width="470" height="470" as="geometry" />
        </mxCell>
        <mxCell id="761dnnyQ54j-Cl0NHfQN-1275" value="22" style="rounded=0;whiteSpace=wrap;html=1;fontSize=33;fillColor=#f5f5f5;fontColor=#333333;strokeColor=#666666;" parent="ea-bZZUWoCOGceE9sefl-18" vertex="1">
          <mxGeometry x="470" y="250" width="220" height="220" as="geometry" />
        </mxCell>
        <mxCell id="761dnnyQ54j-Cl0NHfQN-1276" value="19" style="rounded=0;whiteSpace=wrap;html=1;fontSize=33;fillColor=#f5f5f5;fontColor=#333333;strokeColor=#666666;" parent="ea-bZZUWoCOGceE9sefl-18" vertex="1">
          <mxGeometry x="690" y="280" width="190" height="190" as="geometry" />
        </mxCell>
        <mxCell id="761dnnyQ54j-Cl0NHfQN-1277" value="24" style="rounded=0;whiteSpace=wrap;html=1;fontSize=33;fillColor=#f5f5f5;fontColor=#333333;strokeColor=#666666;" parent="ea-bZZUWoCOGceE9sefl-18" vertex="1">
          <mxGeometry x="880" y="230" width="240" height="240" as="geometry" />
        </mxCell>
        <mxCell id="761dnnyQ54j-Cl0NHfQN-1278" value="3" style="rounded=0;whiteSpace=wrap;html=1;fontSize=33;fillColor=#f5f5f5;fontColor=#333333;strokeColor=#666666;" parent="ea-bZZUWoCOGceE9sefl-18" vertex="1">
          <mxGeometry x="690" y="250" width="30" height="30" as="geometry" />
        </mxCell>
        <mxCell id="761dnnyQ54j-Cl0NHfQN-1279" value="11" style="rounded=0;whiteSpace=wrap;html=1;fontSize=33;fillColor=#f5f5f5;fontColor=#333333;strokeColor=#666666;" parent="ea-bZZUWoCOGceE9sefl-18" vertex="1">
          <mxGeometry x="720" y="170" width="110" height="110" as="geometry" />
        </mxCell>
        <mxCell id="761dnnyQ54j-Cl0NHfQN-1280" value="5" style="rounded=0;whiteSpace=wrap;html=1;fontSize=33;fillColor=#f5f5f5;fontColor=#333333;strokeColor=#666666;" parent="ea-bZZUWoCOGceE9sefl-18" vertex="1">
          <mxGeometry x="830" y="230" width="50" height="50" as="geometry" />
        </mxCell>
        <mxCell id="761dnnyQ54j-Cl0NHfQN-1281" value="25" style="rounded=0;whiteSpace=wrap;html=1;fontSize=33;fillColor=#f5f5f5;fontColor=#333333;strokeColor=#666666;" parent="ea-bZZUWoCOGceE9sefl-18" vertex="1">
          <mxGeometry x="470" width="250" height="250" as="geometry" />
        </mxCell>
        <mxCell id="761dnnyQ54j-Cl0NHfQN-1282" value="6" style="rounded=0;whiteSpace=wrap;html=1;fontSize=33;fillColor=#f5f5f5;fontColor=#333333;strokeColor=#666666;" parent="ea-bZZUWoCOGceE9sefl-18" vertex="1">
          <mxGeometry x="830" y="170" width="60" height="60" as="geometry" />
        </mxCell>
        <mxCell id="761dnnyQ54j-Cl0NHfQN-1283" value="23" style="rounded=0;whiteSpace=wrap;html=1;fontSize=33;fillColor=#f5f5f5;fontColor=#333333;strokeColor=#666666;" parent="ea-bZZUWoCOGceE9sefl-18" vertex="1">
          <mxGeometry x="890" width="230" height="230" as="geometry" />
        </mxCell>
        <mxCell id="761dnnyQ54j-Cl0NHfQN-1284" value="17" style="rounded=0;whiteSpace=wrap;html=1;fontSize=33;fillColor=#f5f5f5;fontColor=#333333;strokeColor=#666666;" parent="ea-bZZUWoCOGceE9sefl-18" vertex="1">
          <mxGeometry x="720" width="170" height="170" as="geometry" />
        </mxCell>
      </root>
    </mxGraphModel>
  </diagram>
</mxfile>
